<svg xmlns="http://www.w3.org/2000/svg" version="1.1" xmlns:xlink="http://www.w3.org/1999/xlink" width="512" height="512" x="0" y="0" viewBox="0 0 24 24" style="enable-background:new 0 0 512 512" xml:space="preserve" class=""><g><path d="M15.5 5h-1c-.827 0-1.5.673-1.5 1.5V24h4V6.5c0-.827-.673-1.5-1.5-1.5Zm.5 18h-2V6.5a.5.5 0 0 1 .5-.5h1a.5.5 0 0 1 .5.5V23ZM9.5 11h-1c-.827 0-1.5.673-1.5 1.5V24h4V12.5c0-.827-.673-1.5-1.5-1.5Zm.5 12H8V12.5a.5.5 0 0 1 .5-.5h1a.5.5 0 0 1 .5.5V23Zm-6.5-6h-1c-.827 0-1.5.673-1.5 1.5V24h4v-5.5c0-.827-.673-1.5-1.5-1.5Zm.5 6H2v-4.5a.5.5 0 0 1 .5-.5h1a.5.5 0 0 1 .5.5V23Z" fill="#273677" opacity="1" data-original="#000000" class=""></path></g></svg>