<svg xmlns="http://www.w3.org/2000/svg" version="1.1" xmlns:xlink="http://www.w3.org/1999/xlink" width="512" height="512" x="0" y="0" viewBox="0 0 24 24" style="enable-background:new 0 0 512 512" xml:space="preserve" class=""><g><path d="M23.72 9.39c.19.85.28 1.73.28 2.61 0 6.62-5.38 12-12 12S0 18.62 0 12 5.38 0 12 0c.88 0 1.76.1 2.61.28a.503.503 0 0 1-.22.98C13.61 1.09 12.8 1 12 1 5.93 1 1 5.93 1 12s4.93 11 11 11 11-4.93 11-11c0-.81-.09-1.61-.26-2.39a.503.503 0 0 1 .98-.22ZM13.4 5.14c.27.05.53-.12.59-.39a.507.507 0 0 0-.39-.59C13.08 4.05 12.54 4 12 4c-4.41 0-8 3.59-8 8s3.59 8 8 8 8-3.59 8-8c0-.54-.05-1.08-.16-1.6a.5.5 0 1 0-.98.2A7.008 7.008 0 0 1 12 19c-3.86 0-7-3.14-7-7a7.008 7.008 0 0 1 8.4-6.86Zm-1.83 3.89c.27-.04.46-.29.42-.57s-.29-.47-.57-.42A4.013 4.013 0 0 0 7.99 12c0 2.21 1.79 4 4 4 1.98 0 3.68-1.47 3.96-3.43a.505.505 0 0 0-.42-.57.505.505 0 0 0-.57.42 3.011 3.011 0 0 1-2.97 2.57c-1.65 0-3-1.35-3-3 0-1.48 1.1-2.76 2.57-2.97ZM16 7.29V4.33c0-.67.26-1.3.73-1.77L19.15.15A.499.499 0 0 1 20 .5V4h3.5a.499.499 0 0 1 .35.85l-2.41 2.41c-.47.47-1.1.73-1.77.73h-2.96l-4.35 4.35a.485.485 0 0 1-.7 0c-.2-.2-.2-.51 0-.71l4.35-4.35ZM17 7h2.67c.4 0 .78-.16 1.06-.44L22.29 5H19.5c-.28 0-.5-.22-.5-.5V1.71l-1.56 1.56c-.28.28-.44.66-.44 1.06V7Z" fill="#273677" opacity="1" data-original="#000000" class=""></path></g></svg>