<svg xmlns="http://www.w3.org/2000/svg" version="1.1" xmlns:xlink="http://www.w3.org/1999/xlink" width="512" height="512" x="0" y="0" viewBox="0 0 24 24" style="enable-background:new 0 0 512 512" xml:space="preserve" class=""><g><path d="M9 12c-3.309 0-6-2.691-6-6s2.691-6 6-6 6 2.691 6 6-2.691 6-6 6ZM9 1C6.243 1 4 3.243 4 6s2.243 5 5 5 5-2.243 5-5-2.243-5-5-5ZM1 23.5V23c0-4.233 3.307-7.741 7.529-7.986a.5.5 0 0 0 .47-.528c-.016-.275-.251-.502-.528-.47C3.721 14.291 0 18.237 0 23v.5a.5.5 0 0 0 1 0Zm16.5.5c-3.584 0-6.5-2.916-6.5-6.5s2.916-6.5 6.5-6.5 6.5 2.916 6.5 6.5-2.916 6.5-6.5 6.5Zm0-12c-3.033 0-5.5 2.468-5.5 5.5s2.467 5.5 5.5 5.5 5.5-2.468 5.5-5.5-2.467-5.5-5.5-5.5Zm.635 7.464 2.703-2.614a.5.5 0 0 0-.695-.719l-2.706 2.618a.88.88 0 0 1-1.223.004l-1.363-1.345a.5.5 0 0 0-.702.711l1.364 1.347c.362.354.837.531 1.312.531s.951-.178 1.311-.533Z" fill="#ffffff" opacity="1" data-original="#000000" class=""></path></g></svg>