<svg xmlns="http://www.w3.org/2000/svg" version="1.1" xmlns:xlink="http://www.w3.org/1999/xlink" width="512" height="512" x="0" y="0" viewBox="0 0 24 24" style="enable-background:new 0 0 512 512" xml:space="preserve" class=""><g><path d="M4 4c1.103 0 2-.897 2-2s-.897-2-2-2-2 .897-2 2 .897 2 2 2Zm0-3a1.001 1.001 0 1 1-1 1c0-.551.448-1 1-1Zm5 4c1.103 0 2-.897 2-2s-.897-2-2-2-2 .897-2 2 .897 2 2 2Zm0-3a1.001 1.001 0 1 1-1 1c0-.551.448-1 1-1Zm5 2c1.103 0 2-.897 2-2s-.897-2-2-2-2 .897-2 2 .897 2 2 2Zm0-3a1.001 1.001 0 1 1-1 1c0-.551.448-1 1-1ZM6.062 8.398C6.349 7.008 7.607 6 9.051 6s2.7 1.009 2.989 2.398c.057.27-.069.602-.49.602a.5.5 0 0 1-.488-.398C10.869 7.674 10.023 7 9.051 7s-1.818.673-2.011 1.602a.5.5 0 1 1-.979-.203ZM14 5c1.444 0 2.702 1.009 2.989 2.398.057.271-.114.611-.49.602a.507.507 0 0 1-.488-.398C15.819 6.674 14.973 6 14 6c-.28 0-.552.054-.808.161a.5.5 0 0 1-.384-.923A3.074 3.074 0 0 1 14 5ZM1.011 7.398C1.298 6.008 2.556 5 4 5c.413 0 .814.08 1.192.238a.501.501 0 0 1 .27.654.501.501 0 0 1-.654.269A2.1 2.1 0 0 0 4 6c-.973 0-1.818.673-2.011 1.602-.049.236-.259.431-.488.398-.405-.058-.547-.331-.49-.602Zm22.17 2.256a2.539 2.539 0 0 0-1.809-.652 2.496 2.496 0 0 0-1.739.818l-3.732 4.102A2.647 2.647 0 0 0 13.358 12H3.5C1.57 12 0 13.57 0 15.5v5C0 22.43 1.57 24 3.5 24h5.965a9.507 9.507 0 0 0 7.093-3.181l6.806-7.639a2.519 2.519 0 0 0-.183-3.526Zm-.563 2.861-6.806 7.639A8.507 8.507 0 0 1 9.465 23H3.5A2.503 2.503 0 0 1 1 20.5v-5C1 14.122 2.121 13 3.5 13h9.857c.905 0 1.643.737 1.643 1.642 0 .812-.606 1.511-1.398 1.624l-6.161.737a.5.5 0 0 0-.437.556.504.504 0 0 0 .556.437l6.173-.739a2.658 2.658 0 0 0 2.145-1.824l4.496-4.94a1.509 1.509 0 0 1 2.134-.099c.609.555.658 1.506.11 2.122Z" fill="#273677" opacity="1" data-original="#000000"></path></g></svg>