<svg xmlns="http://www.w3.org/2000/svg" version="1.1" xmlns:xlink="http://www.w3.org/1999/xlink" width="512" height="512" x="0" y="0" viewBox="0 0 24 24" style="enable-background:new 0 0 512 512" xml:space="preserve" class=""><g><path d="M21.5 6h-17a3.513 3.513 0 0 1-2.872-1.499A3.5 3.5 0 0 1 4.5 3h19a.5.5 0 0 0 0-1h-19A4.5 4.5 0 0 0 0 6.5v11A4.5 4.5 0 0 0 4.5 22h17a2.5 2.5 0 0 0 2.5-2.5v-11A2.5 2.5 0 0 0 21.5 6ZM23 19.5c0 .827-.673 1.5-1.5 1.5h-17C2.57 21 1 19.43 1 17.5v-11c0-.348.051-.684.146-1.001A4.518 4.518 0 0 0 4.5 7h17c.827 0 1.5.673 1.5 1.5v11ZM21 14a1 1 0 1 1-2 0 1 1 0 0 1 2 0Z" fill="#ffffff" opacity="1" data-original="#000000" class=""></path></g></svg>