<svg xmlns="http://www.w3.org/2000/svg" version="1.1" xmlns:xlink="http://www.w3.org/1999/xlink" width="512" height="512" x="0" y="0" viewBox="0 0 24 24" style="enable-background:new 0 0 512 512" xml:space="preserve" class=""><g><path d="M9.414 14H10.5a6.507 6.507 0 0 0-.319 1H9l-1-1H1v1.5c0 .827.673 1.5 1.5 1.5h7.525c.026.342.079.675.156 1H2.5A2.503 2.503 0 0 1 0 15.5V13h2V0h20v13.055a6.568 6.568 0 0 0-1-1.238V1H3v12h5.414l1 1Zm13.484 9.605L19.293 20c-.77.616-1.733 1-2.793 1-2.481 0-4.5-2.019-4.5-4.5s2.019-4.5 4.5-4.5 4.5 2.019 4.5 4.5c0 1.06-.384 2.023-1 2.793l3.605 3.605-.707.707ZM20 16.5c0-1.93-1.57-3.5-3.5-3.5S13 14.57 13 16.5s1.57 3.5 3.5 3.5 3.5-1.57 3.5-3.5Z" fill="#ffffff" opacity="1" data-original="#000000"></path></g></svg>