<svg xmlns="http://www.w3.org/2000/svg" version="1.1" xmlns:xlink="http://www.w3.org/1999/xlink" width="512" height="512" x="0" y="0" viewBox="0 0 24 24" style="enable-background:new 0 0 512 512" xml:space="preserve" class=""><g><path d="M19.5 3.998h-1.528a4.506 4.506 0 0 0-4.472-4h-9a4.505 4.505 0 0 0-4.5 4.5v13.854A1.643 1.643 0 0 0 1.648 20c.319 0 .638-.093.914-.277l3.524-2.349a4.508 4.508 0 0 0 4.414 3.623h6.849l4.089 2.726a1.637 1.637 0 0 0 1.691.082c.537-.287.871-.844.871-1.453V8.498c0-2.481-2.019-4.5-4.5-4.5ZM2.007 18.892a.635.635 0 0 1-.665.032.638.638 0 0 1-.342-.571V4.498c0-1.93 1.57-3.5 3.5-3.5h9c1.93 0 3.5 1.57 3.5 3.5v8c0 1.93-1.57 3.5-3.5 3.5H6.563a.755.755 0 0 0-.345.087l-4.211 2.806ZM23 22.353a.638.638 0 0 1-.342.571.64.64 0 0 1-.665-.032l-4.215-2.81a.498.498 0 0 0-.277-.084h-7a3.505 3.505 0 0 1-3.464-3h6.464c2.481 0 4.5-2.019 4.5-4.5v-7.5h1.5c1.93 0 3.5 1.57 3.5 3.5v13.854Z" fill="#ffffff" opacity="1" data-original="#000000" class=""></path></g></svg>