<svg xmlns="http://www.w3.org/2000/svg" version="1.1" xmlns:xlink="http://www.w3.org/1999/xlink" width="512" height="512" x="0" y="0" viewBox="0 0 24 24" style="enable-background:new 0 0 512 512" xml:space="preserve" class=""><g><path d="M8 12c3.309 0 6-2.691 6-6s-2.691-6-6-6-6 2.691-6 6 2.691 6 6 6ZM8 1c2.757 0 5 2.243 5 5s-2.243 5-5 5-5-2.243-5-5 2.243-5 5-5Zm8 21v1.5a.5.5 0 0 1-1 0V22c0-3.86-3.141-7-7-7s-7 3.14-7 7v1.5a.5.5 0 0 1-1 0V22c0-4.411 3.589-8 8-8s8 3.589 8 8Zm8-10.5a.5.5 0 0 1-.5.5H20v3.5a.5.5 0 0 1-1 0V12h-3.5a.5.5 0 0 1 0-1H19V7.5a.5.5 0 0 1 1 0V11h3.5a.5.5 0 0 1 .5.5Z" fill="#ffffff" opacity="1" data-original="#000000" class=""></path></g></svg>