<svg xmlns="http://www.w3.org/2000/svg" version="1.1" xmlns:xlink="http://www.w3.org/1999/xlink" width="512" height="512" x="0" y="0" viewBox="0 0 24 24" style="enable-background:new 0 0 512 512" xml:space="preserve" class=""><g><path d="M12 4A14.9 14.9 0 0 0 1.394 8.394l-.707-.707A15.892 15.892 0 0 1 12 3a15.86 15.86 0 0 1 9.396 3.069l-.714.714A14.88 14.88 0 0 0 12 4Zm3.604 7.861.741-.741A8.946 8.946 0 0 0 12 10a8.94 8.94 0 0 0-6.364 2.636l.707.707A7.948 7.948 0 0 1 12 11c1.274 0 2.5.302 3.604.861Zm-1.887 6.13c.176.297.283.64.283 1.01 0 1.103-.897 2-2 2s-2-.897-2-2 .897-2 2-2c.37 0 .712.108 1.01.283l9.894-9.893.707.707-9.894 9.893ZM13 19.001c0-.551-.449-1-1-1s-1 .449-1 1 .449 1 1 1 1-.449 1-1Z" fill="#273677" opacity="1" data-original="#000000"></path></g></svg>